<svg xmlns="http://www.w3.org/2000/svg" fill="none" viewBox="61.52849740932643 197.64 519.2141623488774 136.08" style="max-height: 500px" width="519.2141623488774" height="136.08">
<rect fill="#0C0D3B" height="540" width="625"/>
<circle fill="#81CDFF" r="6.11932" cy="315.545" cx="446.031"/>
<circle fill="#367CE5" r="6.11932" cy="315.545" cx="464.27"/>
<path fill="#4196CF" d="M479.002 315.926C478.817 312.248 481.661 309.115 485.353 308.929C488.191 308.787 491.659 311.681 493.746 313.67C495.566 311.546 498.146 309.066 500.571 308.856C504.255 308.538 507.498 311.255 507.815 314.925C508.131 318.594 505.401 321.827 501.718 322.145C498.895 322.388 495.217 319.888 493.094 317.901C491.197 319.942 488.438 322.129 486.023 322.251C482.33 322.436 479.187 319.605 479.002 315.926Z"/>
<path fill="#4196CF" d="M533.1 323.339C532.694 323.339 532.387 323.213 532.177 322.961C531.981 322.709 531.883 322.367 531.883 321.933C531.883 321.583 531.897 321.283 531.925 321.031C531.953 320.779 532.009 320.513 532.093 320.234C532.177 319.94 532.282 319.583 532.408 319.164C532.547 318.73 532.722 318.177 532.932 317.506C533.058 317.114 533.212 316.604 533.394 315.974C533.59 315.331 533.785 314.632 533.981 313.876C534.177 313.107 534.338 312.338 534.464 311.569C534.604 310.785 534.674 310.065 534.674 309.408C534.674 308.96 534.576 308.547 534.38 308.17C533.079 309.457 531.848 311.135 530.687 313.205C529.54 315.275 528.519 317.681 527.624 320.422C527.358 321.108 527.051 321.569 526.701 321.807C526.351 322.031 526.016 322.143 525.694 322.143C525.596 322.143 525.449 322.087 525.253 321.975C525.057 321.849 524.876 321.625 524.708 321.304C524.54 320.982 524.456 320.527 524.456 319.94C524.456 319.8 524.491 319.625 524.561 319.415C524.631 319.191 524.736 318.954 524.876 318.702C525.001 317.975 525.092 317.198 525.148 316.373C525.218 315.534 525.26 314.702 525.274 313.876C525.302 313.037 525.316 312.254 525.316 311.527C525.316 310.967 525.274 310.478 525.19 310.058C524.505 310.925 523.855 311.974 523.239 313.205C522.624 314.436 522.064 315.744 521.561 317.128C521.071 318.513 520.665 319.87 520.344 321.199C520.26 321.52 520.162 321.821 520.05 322.101C519.938 322.367 519.77 322.583 519.547 322.751C519.337 322.905 519.029 322.982 518.623 322.982C518.176 322.982 517.84 322.8 517.616 322.436C517.393 322.073 517.281 321.59 517.281 320.989C517.281 320.527 517.379 319.933 517.574 319.205C517.77 318.464 518.036 317.66 518.372 316.793C518.707 315.912 519.092 315.016 519.526 314.107C519.973 313.184 520.442 312.296 520.931 311.443C521.421 310.589 521.917 309.827 522.421 309.156C522.938 308.47 523.428 307.932 523.89 307.54C524.365 307.135 524.799 306.932 525.19 306.932C525.204 306.932 525.225 306.932 525.253 306.932C525.561 306.932 525.841 306.96 526.092 307.016C526.358 307.058 526.589 307.205 526.785 307.456C526.995 307.694 527.176 308.093 527.33 308.652C527.484 309.212 527.617 310.002 527.729 311.023C527.757 311.275 527.778 311.576 527.792 311.925C527.806 312.261 527.813 312.611 527.813 312.974C528.274 311.939 528.778 310.967 529.323 310.058C529.883 309.149 530.456 308.345 531.044 307.645C531.645 306.946 532.24 306.4 532.827 306.009C533.415 305.617 533.96 305.421 534.464 305.421C535.051 305.421 535.597 305.568 536.1 305.862C536.604 306.142 537.009 306.617 537.317 307.289C537.625 307.96 537.779 308.876 537.779 310.037C537.779 311.268 537.667 312.464 537.443 313.625C537.219 314.772 536.939 315.856 536.604 316.877C536.268 317.898 535.932 318.835 535.597 319.688C535.261 320.527 534.981 321.255 534.757 321.87C534.576 322.304 534.366 322.66 534.128 322.94C533.89 323.206 533.548 323.339 533.1 323.339ZM543.295 323.758C542.428 323.758 541.729 323.458 541.197 322.856C540.666 322.241 540.4 321.255 540.4 319.898C540.4 319.031 540.498 318.163 540.694 317.296C540.904 316.415 541.19 315.583 541.554 314.8C541.932 314.002 542.365 313.296 542.855 312.681C543.358 312.065 543.911 311.583 544.512 311.233C545.114 310.869 545.736 310.687 546.379 310.687C547.47 310.687 548.324 310.981 548.939 311.569C549.555 312.156 549.862 312.904 549.862 313.813C549.862 314.513 549.666 315.149 549.275 315.723C548.897 316.282 548.38 316.786 547.722 317.233C547.065 317.681 546.331 318.087 545.519 318.45C544.708 318.814 543.876 319.143 543.023 319.436C542.953 319.94 542.918 320.387 542.918 320.779C542.918 321.017 543.051 321.136 543.316 321.136C543.946 321.136 544.617 321.038 545.33 320.842C546.058 320.632 546.792 320.366 547.533 320.045C548.275 319.709 548.988 319.366 549.673 319.017C550.359 318.653 550.981 318.31 551.541 317.989C552.114 317.653 552.583 317.387 552.946 317.191C553.324 316.982 553.569 316.877 553.681 316.877C553.988 316.877 554.212 316.968 554.352 317.149C554.492 317.331 554.562 317.527 554.562 317.737C554.562 317.835 554.373 318.052 553.995 318.387C553.632 318.723 553.128 319.122 552.485 319.583C551.855 320.031 551.142 320.499 550.345 320.989C549.562 321.464 548.743 321.919 547.89 322.353C547.051 322.772 546.233 323.108 545.435 323.36C544.652 323.625 543.939 323.758 543.295 323.758ZM543.379 317.569C543.953 317.233 544.519 316.884 545.079 316.52C545.652 316.142 546.128 315.723 546.505 315.261C546.883 314.786 547.072 314.233 547.072 313.604C547.072 313.422 547.023 313.303 546.925 313.247C546.827 313.177 546.687 313.142 546.505 313.142C546.016 313.142 545.568 313.359 545.163 313.793C544.771 314.226 544.421 314.786 544.114 315.471C543.82 316.142 543.575 316.842 543.379 317.569Z"/>
<path fill="white" d="M136.056 299.448C129.753 299.448 124.644 294.339 124.644 288.036V283.471H156.027C162.33 283.471 167.439 288.581 167.439 294.883V299.448H136.056Z"/>
<path fill="white" d="M86.4122 275.483C80.1094 275.483 75 270.374 75 264.071V259.506H156.027C162.329 259.506 167.439 264.616 167.439 270.919V275.483H86.4122Z"/>
<path fill="white" d="M156.029 234.969C162.332 234.969 167.441 240.079 167.441 246.381V250.946H86.4147C80.112 250.946 75.0026 245.837 75.0026 239.534V234.969H156.029Z"/>
<path fill="white" d="M106.384 211.001C112.686 211.001 117.796 216.11 117.796 222.413V226.978H86.4123C80.1096 226.978 75.0001 221.869 75.0001 215.566V211.001H106.384Z"/>
<path fill="white" d="M252.299 238.35V296.448H242.938L215.562 256.874H215.08V296.448H204.555V238.35H213.973L241.321 277.952H241.831V238.35H252.299ZM315.681 267.399C315.681 273.659 314.509 279.021 312.164 283.484C309.837 287.928 306.66 291.332 302.632 293.697C298.622 296.061 294.074 297.243 288.987 297.243C283.899 297.243 279.341 296.061 275.313 293.697C271.304 291.314 268.126 287.9 265.781 283.456C263.455 278.992 262.292 273.64 262.292 267.399C262.292 261.139 263.455 255.787 265.781 251.342C268.126 246.879 271.304 243.466 275.313 241.101C279.341 238.737 283.899 237.555 288.987 237.555C294.074 237.555 298.622 238.737 302.632 241.101C306.66 243.466 309.837 246.879 312.164 251.342C314.509 255.787 315.681 261.139 315.681 267.399ZM305.1 267.399C305.1 262.992 304.41 259.276 303.029 256.25C301.667 253.205 299.776 250.908 297.355 249.357C294.934 247.787 292.145 247.002 288.987 247.002C285.828 247.002 283.039 247.787 280.618 249.357C278.197 250.908 276.296 253.205 274.916 256.25C273.554 259.276 272.873 262.992 272.873 267.399C272.873 271.806 273.554 275.531 274.916 278.576C276.296 281.602 278.197 283.9 280.618 285.47C283.039 287.02 285.828 287.796 288.987 287.796C292.145 287.796 294.934 287.02 297.355 285.47C299.776 283.9 301.667 281.602 303.029 278.576C304.41 275.531 305.1 271.806 305.1 267.399ZM336.376 296.448L319.979 238.35H331.298L341.766 281.044H342.305L353.482 238.35H363.78L374.985 281.073H375.496L385.964 238.35H397.283L380.886 296.448H370.503L358.872 255.683H358.418L346.759 296.448H336.376ZM406.581 296.448H395.347L415.8 238.35H428.793L449.275 296.448H438.041L422.524 250.264H422.07L406.581 296.448ZM406.95 273.668H437.587V282.122H406.95V273.668ZM456.928 296.448V238.35H467.452V262.945H494.374V238.35H504.927V296.448H494.374V271.768H467.452V296.448H456.928Z"/>
</svg>