<svg xmlns="http://www.w3.org/2000/svg" fill="none" viewBox="79.87910189982728 214.92000000000002 459.8445595854922 119.88" style="max-height: 500px" width="459.8445595854922" height="119.88">
<rect fill="#0C0D3B" height="540" width="625"/>
<path fill="white" d="M155.145 314.292C148.842 314.292 143.732 309.182 143.732 302.88V298.315H175.116C181.419 298.315 186.528 303.424 186.528 309.727V314.292H155.145Z"/>
<path fill="white" d="M105.501 290.327C99.1983 290.327 94.0889 285.218 94.0889 278.915V274.35H175.116C181.418 274.35 186.528 279.459 186.528 285.762V290.327H105.501Z"/>
<path fill="white" d="M175.118 249.813C181.42 249.813 186.53 254.922 186.53 261.225V265.79H105.503C99.2003 265.79 94.0909 260.681 94.0909 254.378V249.813H175.118Z"/>
<path fill="white" d="M125.473 225.845C131.775 225.845 136.885 230.954 136.885 237.257V241.822H105.501C99.1984 241.822 94.089 236.713 94.089 230.41V225.845H125.473Z"/>
<path fill="white" d="M271.388 253.194V311.292H262.026L234.651 271.718H234.169V311.292H223.644V253.194H233.062L260.409 292.796H260.92V253.194H271.388ZM334.77 282.243C334.77 288.503 333.598 293.864 331.252 298.328C328.926 302.772 325.749 306.176 321.721 308.54C317.711 310.904 313.163 312.086 308.075 312.086C302.988 312.086 298.43 310.904 294.402 308.54C290.392 306.157 287.215 302.744 284.87 298.299C282.544 293.836 281.381 288.484 281.381 282.243C281.381 275.983 282.544 270.631 284.87 266.186C287.215 261.723 290.392 258.309 294.402 255.945C298.43 253.581 302.988 252.399 308.075 252.399C313.163 252.399 317.711 253.581 321.721 255.945C325.749 258.309 328.926 261.723 331.252 266.186C333.598 270.631 334.77 275.983 334.77 282.243ZM324.189 282.243C324.189 277.836 323.498 274.12 322.118 271.094C320.756 268.049 318.865 265.751 316.444 264.2C314.023 262.631 311.234 261.846 308.075 261.846C304.917 261.846 302.128 262.631 299.707 264.2C297.286 265.751 295.385 268.049 294.005 271.094C292.643 274.12 291.962 277.836 291.962 282.243C291.962 286.649 292.643 290.375 294.005 293.42C295.385 296.446 297.286 298.744 299.707 300.313C302.128 301.864 304.917 302.64 308.075 302.64C311.234 302.64 314.023 301.864 316.444 300.313C318.865 298.744 320.756 296.446 322.118 293.42C323.498 290.375 324.189 286.649 324.189 282.243ZM355.465 311.292L339.068 253.194H350.387L360.855 295.888H361.394L372.571 253.194H382.869L394.074 295.916H394.585L405.053 253.194H416.372L399.975 311.292H389.592L377.961 270.527H377.507L365.848 311.292H355.465ZM425.67 311.292H414.436L434.889 253.194H447.882L468.364 311.292H457.13L441.613 265.108H441.159L425.67 311.292ZM426.038 288.512H456.676V296.966H426.038V288.512ZM476.016 311.292V253.194H486.541V277.789H513.463V253.194H524.016V311.292H513.463V286.611H486.541V311.292H476.016Z"/>
</svg>