<svg xmlns="http://www.w3.org/2000/svg" fill="none" viewBox="86.36678200692042 214.92000000000002 449.10726643598616 120.96000000000001" style="max-height: 500px" width="449.10726643598616" height="120.96000000000001">
<rect fill="white" height="540" width="624"/>
<path fill="#082A95" d="M155.144 314.448C148.841 314.448 143.732 309.339 143.732 303.036V298.471H175.115C181.418 298.471 186.528 303.58 186.528 309.883V314.448H155.144Z"/>
<path fill="#082A95" d="M105.501 290.483C99.1978 290.483 94.0884 285.374 94.0884 279.071V274.506H175.115C181.418 274.506 186.527 279.616 186.527 285.919V290.483H105.501Z"/>
<path fill="#082A95" d="M175.117 249.969C181.42 249.969 186.529 255.079 186.529 261.381V265.946H105.503C99.1998 265.946 94.0904 260.837 94.0904 254.534V249.969H175.117Z"/>
<path fill="#082A95" d="M125.472 226.001C131.775 226.001 136.884 231.111 136.884 237.413V241.978H105.501C99.1979 241.978 94.0885 236.869 94.0885 230.566V226.001H125.472Z"/>
<path fill="#082A95" d="M271.388 253.35V311.448H262.026L234.65 271.874H234.168V311.448H223.644V253.35H233.062L260.409 292.952H260.92V253.35H271.388ZM334.77 282.399C334.77 288.659 333.597 294.021 331.252 298.484C328.926 302.928 325.748 306.332 321.72 308.697C317.711 311.061 313.162 312.243 308.075 312.243C302.988 312.243 298.43 311.061 294.401 308.697C290.392 306.314 287.215 302.9 284.87 298.456C282.543 293.992 281.38 288.64 281.38 282.399C281.38 276.139 282.543 270.787 284.87 266.342C287.215 261.879 290.392 258.466 294.401 256.101C298.43 253.737 302.988 252.555 308.075 252.555C313.162 252.555 317.711 253.737 321.72 256.101C325.748 258.466 328.926 261.879 331.252 266.342C333.597 270.787 334.77 276.139 334.77 282.399ZM324.188 282.399C324.188 277.992 323.498 274.276 322.117 271.25C320.756 268.205 318.864 265.908 316.444 264.357C314.023 262.787 311.233 262.002 308.075 262.002C304.917 262.002 302.127 262.787 299.706 264.357C297.286 265.908 295.385 268.205 294.004 271.25C292.643 274.276 291.962 277.992 291.962 282.399C291.962 286.806 292.643 290.531 294.004 293.576C295.385 296.602 297.286 298.9 299.706 300.47C302.127 302.02 304.917 302.796 308.075 302.796C311.233 302.796 314.023 302.02 316.444 300.47C318.864 298.9 320.756 296.602 322.117 293.576C323.498 290.531 324.188 286.806 324.188 282.399ZM355.464 311.448L339.067 253.35H350.386L360.854 296.044H361.393L372.571 253.35H382.868L394.074 296.073H394.584L405.052 253.35H416.371L399.974 311.448H389.592L377.961 270.683H377.507L365.847 311.448H355.464ZM425.669 311.448H414.435L434.889 253.35H447.882L468.364 311.448H457.13L441.612 265.264H441.158L425.669 311.448ZM426.038 288.668H456.676V297.122H426.038V288.668ZM476.016 311.448V253.35H486.541V277.945H513.462V253.35H524.015V311.448H513.462V286.768H486.541V311.448H476.016Z"/>
</svg>